<svg xmlns="http://www.w3.org/2000/svg" width="185.485" height="67.449" viewBox="0 0 185.485 67.449">
  <path id="logo" d="M185.055,37.073l-.023-.008c-.879,2.812-1.835,3.748-3.618,3.689-1.243-.04-2.209-3.081-2.972-5.389s-1.644-4.58-3.273-4.58c-1.408,0-2.35,1.54-2.948,3.116-1.354,3.583-1.737,5.33-2.272,5.33s-.843-1.824-1.781-5.465c-.623-2.414-1.05-2.924-2.07-2.924a9.334,9.334,0,0,0-2.505.545,10.61,10.61,0,0,1,.468,2.558c0,2.983-1.144,7.294-4.751,7.294a4.33,4.33,0,0,1-3.482-2.047c2.178-1.947,2.955-3.955,2.955-5.586,0-2.3-.968-3.92-3.08-3.92-2.728,0-5.1,3.408-5.1,7.071a10.577,10.577,0,0,0,.545,3.4,17.864,17.864,0,0,1-3.606,1.947,46.7,46.7,0,0,1-.536-6.223,19.887,19.887,0,0,1,.559-5.283,25.35,25.35,0,0,0-3.583-.435c-5.24,0-8.336,3.163-9.077,7.215-.641,1.9-1.617,3.784-2.827,3.784-.7,0-1.567-1.238-3.083-5.911-.886-2.737-2.43-4.6-5.364-4.6-4.269,0-6.485,3.416-6.788,7.294-.211,2.14-1.236,3.751-2.1,3.751-2.8,0-3.1-11.7-6.539-11.7-2.119,0-3.059,3.016-4.626,7.311a80.254,80.254,0,0,0-1.5-9.09c2.738-6.678,4.873-15.4-.5-15.4-2.368,0-4.462,2.748-4.462,7.031A103.039,103.039,0,0,0,98.46,32.5c-1.3,3.864-3.318,8.508-4.384,8.508-.776,0-1.556-2.288-2.486-5.519-.785-2.72-1.5-4.192-3.229-4.192-1.337,0-2.041,1.3-3.036,3.632-1.268,2.968-1.457,3.354-1.8,3.354-.55,0-1.025-2.194-2.023-5.367-.386-1.234-.818-1.664-1.7-1.664a14.3,14.3,0,0,0-2.6.347,19.909,19.909,0,0,1,.167,2.679c0,2.812-1.144,6.647-3.872,6.647a5.177,5.177,0,0,1-3.957-2.049c1.837-1.924,2.9-4.045,2.9-5.608,0-2.48-1.48-4.269-3.276-4.269-1.6,0-4.465,1.421-4.465,6.819a12.944,12.944,0,0,0,.677,4.136c-.909,1.081-2.035,1.995-3.141,1.995-1.767,0-2.329-2.522-3.694-11.587-.117-.777-.526-1.022-1.055-1.022-2.288,0-4.751,8.179-4.751,12.185,0,.341-.136.691-.263,0-.637-3.488-.79-10.054-.79-18.319-2.723.115-2.853,1.231-4.838,4.515-1.18,1.954-3.221,4.046-4.276,4.046-.5,0-.776-.374-.776-1.408a1.643,1.643,0,0,0-1.706-1.769A1.94,1.94,0,0,0,37.905,30.6c0,2.335,3.713,3.467,3.713,7.147,0,1.711-.883,3.006-2.644,3.006-2.154,0-2.975-2.1-2.975-4.261,0-2.882.714-4.218,1.231-4.917a1.444,1.444,0,0,0-1.147-.4c-1.029,0-2.336.5-3.388,2.5C31.52,35.9,30.254,39.6,29.025,39.6c-1.339,0-2.625-4-5.651-12.681C30.195,16.437,38.013,4.6,39.94,2.28L38.2.281c-.336-.388-.715-.378-.977.054C35.29,3.516,28.527,14.474,22.4,24.193c-1.483.919-4.706,2.441-5.728,2.957.292,1.2.71,2.625,1.213,4.153-1.454,2.266-2.758,4.279-3.816,5.866-.148-7.129-.383-17.471-.728-23.349-.064-1.109-.056-1.681-.12-2A1.339,1.339,0,0,0,11.8,12.7,232.437,232.437,0,0,1,0,38.67c.437.339.813.285,1.388-.17,1.422-1.135,6.121-8.506,7.378-11.206,0,4.858.407,13.686.637,18.614,1.189.562,1.72.192,3.215-2.241.735-1.2,3.115-4.925,6.192-9.7,2.127,5.758,5.1,11.813,7.2,11.813,1.847,0,5.646-4.981,6-7.623.7,4.906,3.151,7.11,6.407,7.11,2.991,0,5.278-3.067,5.278-6.987A7.743,7.743,0,0,0,42.3,33.7,6.338,6.338,0,0,0,47.12,30.45c.4,6.3,2.448,31.953,2.871,35.812.618.115,1.781-.62,2.23-2.753.484-2.291.7-11.927,2.728-26.242.968,5.2,2.463,8.179,4.838,8.179,2.244,0,4.747-1.57,6.426-3.63,1.238,2.214,3.186,3.758,5.641,3.758,3.776,0,7.009-4.923,6.847-7.881.461,2.677,1.513,7.6,3.332,7.6s3.407-6.3,4.76-9.305c1.088,3.627,3.019,9.545,5.883,9.545,2.46,0,4.746-4.755,6.286-9.144.515,4.741,1.032,9.225,1.309,9.737a3.556,3.556,0,0,0,2.47-2.232c.507-1.071,1.978-4.79,3.609-8.667,2.584,7.149,4.081,10.218,6.478,10.218,1.941,0,3.722-2.027,4.462-4.153a4.8,4.8,0,0,0,4.685,3.918c2.42,0,4.27-2.74,4.727-4.618.517,2.362,1.924,4.637,3.736,4.637,1.628,0,3.47-2.1,4.434-4.549.474,2.62,2.286,4.627,4.425,4.627a4.571,4.571,0,0,0,3.788-2.855c.134.649.278,1.342.386,1.841a33.5,33.5,0,0,0-1.736,9.882c0,5.6,1.9,13.271,5.3,13.271,2.333,0,3.778-4.627,3.543-9.365a57.4,57.4,0,0,0-1.752-10.442c-.23-.846-.5-2.141-.769-3.333a15.585,15.585,0,0,0,3.9-2.391,7.206,7.206,0,0,0,6.066,3.839c4.216,0,6.128-4.412,6.863-6.873.27,2.012.97,5.316,3.228,5.316,2.435,0,4.43-5.381,5.494-8.036.864,3.055,3.062,9.117,6.071,9.117,3.665,0,5.592-4.637,5.8-7.339.03-.379-.023-.747-.421-.863ZM67.947,34.238c0-1.971.719-2.713,1.355-2.713.677,0,1.055.84,1.055,1.794a6.592,6.592,0,0,1-1.863,3.792,7.689,7.689,0,0,1-.547-2.875Zm33.475-9.315a33.963,33.963,0,0,1-.745-6.033c0-4.17,2.241-4.493,2.258-1.757C102.95,19.123,102.024,22.328,101.421,24.923Zm21.808,15.5c-1.389,0-2.594-1.482-2.594-3.747s1.147-3.888,2.984-3.888c1.671,0,2.484,2.028,2.484,3.7,0,2.522-1.332,3.932-2.872,3.932Zm19.553-2.561c0,2.256-1.146,3.333-1.966,3.333-1.377,0-1.864-1.561-1.864-3.413,0-2.194.963-4.94,3.87-5.026-.131,2.833-.038,4.692-.038,5.105Zm3.948,23.065c0,.97-.084,2.721-.5,2.721-.9,0-2.253-5.215-2.328-9.467a46.062,46.062,0,0,1,.761-7.463c.362,1.42,2.074,10.317,2.067,14.208Zm7.587-27.057c0-1.514.484-2.512,1.215-2.512.616,0,1.018.649,1.018,1.647a6.721,6.721,0,0,1-1.588,4.515A10.241,10.241,0,0,1,154.318,33.874Z" fill="#cca37a"/>
</svg>
